<svg xmlns="http://www.w3.org/2000/svg" viewBox="0 0 300 90" width="300" height="90">
  <g transform="translate(4, 4)">
    <path d="M36,2 L66,2 L66,48 C66,62 51,72 51,72 C51,72 36,62 36,48 Z" fill="#003087"/>
    <path d="M39,5 L63,5 L63,47 C63,59 51,68 51,68 C51,68 39,59 39,47 Z" fill="#FFB81C"/>
    <rect x="47" y="12" width="8" height="26" fill="#003087"/>
    <rect x="40" y="25" width="22" height="8" fill="#003087"/>
    <circle cx="44" cy="16" r="2" fill="#FFB81C"/>
    <circle cx="58" cy="16" r="2" fill="#FFB81C"/>
    <circle cx="44" cy="50" r="2" fill="#FFB81C"/>
    <circle cx="58" cy="50" r="2" fill="#FFB81C"/>
  </g>
  <text x="86" y="32" fill="#003087" font-size="13" font-weight="bold" font-family="Georgia, serif" letter-spacing="1">UNIVERSIDADE</text>
  <text x="86" y="50" fill="#003087" font-size="13" font-weight="bold" font-family="Georgia, serif" letter-spacing="1">DE SAO PAULO</text>
  <text x="86" y="68" fill="#003087" font-size="11" font-family="Georgia, serif" letter-spacing="2">USP</text>
</svg>